<svg xmlns="http://www.w3.org/2000/svg" viewBox="0 0 32 32">
  <rect x="3" y="5" width="26" height="22" rx="2" fill="#16213e" stroke="#e2c97e" stroke-width="1.5"/>
  <line x1="11" y1="5" x2="11" y2="27" stroke="#2a3a5c" stroke-width="1"/>
  <line x1="21" y1="5" x2="21" y2="27" stroke="#2a3a5c" stroke-width="1"/>
  <line x1="3" y1="13" x2="29" y2="13" stroke="#2a3a5c" stroke-width="1"/>
  <line x1="3" y1="19" x2="29" y2="19" stroke="#2a3a5c" stroke-width="1"/>
  <rect x="5"  y="8"  width="4" height="3" rx="0.5" fill="#4a90d9"/>
  <rect x="13" y="8"  width="6" height="3" rx="0.5" fill="#7ab648"/>
  <rect x="23" y="8"  width="4" height="3" rx="0.5" fill="#e2c97e"/>
  <rect x="5"  y="15" width="4" height="2" rx="0.5" fill="#e2c97e"/>
  <rect x="13" y="15" width="6" height="2" rx="0.5" fill="#4a90d9"/>
  <rect x="23" y="15" width="4" height="2" rx="0.5" fill="#c0392b"/>
  <rect x="5"  y="21" width="6" height="3" rx="0.5" fill="#7ab648"/>
  <rect x="14" y="21" width="4" height="3" rx="0.5" fill="#c0392b"/>
  <rect x="22" y="21" width="5" height="3" rx="0.5" fill="#e2c97e"/>
</svg>
